<?xml version="1.0" encoding="UTF-8"?>
<svg id="Layer_1" xmlns="http://www.w3.org/2000/svg" version="1.1" viewBox="0 0 195.31 26.18">
  <!-- Generator: Adobe Illustrator 30.4.0, SVG Export Plug-In . SVG Version: 2.1.4 Build 226)  -->
  <defs>
    <style>
      .st0 {
        fill: #ff9e18;
      }

      .st1 {
        fill: #fff;
      }
    </style>
  </defs>
  <g>
    <g>
      <path class="st0" d="M38.7,12.68l-1.87,2.49h-.88l-1.89-2.51v4.81h-2.09v-8.7h1.71l2.7,3.73,2.7-3.73h1.7v8.7h-2.07v-4.8h-.01Z"/>
      <path class="st0" d="M42.44,12.93c0-2.49,1.83-4.54,4.45-4.54s4.48,2.04,4.48,4.54-1.83,4.55-4.48,4.55-4.45-2.06-4.45-4.55ZM49.2,12.93c0-1.51-1.02-2.51-2.31-2.51s-2.28,1-2.28,2.51,1.02,2.51,2.28,2.51,2.31-1,2.31-2.51Z"/>
      <path class="st0" d="M52.84,14.94s.51.46,1.32.46c.99,0,1.38-.49,1.38-1.61v-5.22h2.1v5.66c0,1.65-.99,3.25-3.42,3.25-1.65,0-2.39-.84-2.39-.84l1.02-1.7h-.01Z"/>
      <path class="st0" d="M59.22,12.93c0-2.49,1.83-4.54,4.45-4.54s4.48,2.04,4.48,4.54-1.83,4.55-4.48,4.55-4.45-2.06-4.45-4.55ZM65.98,12.93c0-1.51-1.02-2.51-2.31-2.51s-2.28,1-2.28,2.51,1.02,2.51,2.28,2.51,2.31-1,2.31-2.51Z"/>
    </g>
    <path class="st1" d="M74.48,18.84h-1.1V7.02h1.1v11.82Z"/>
    <g>
      <path class="st1" d="M87.12,16.38s-.93,1.1-2.9,1.1c-2.62,0-4.37-2.02-4.37-4.54s1.74-4.55,4.37-4.55c1.97,0,2.9,1.1,2.9,1.1l-.7.93s-.81-.9-2.19-.9c-1.86,0-3.15,1.52-3.15,3.42s1.29,3.41,3.15,3.41c1.38,0,2.19-.9,2.19-.9,0,0,.7.93.7.93Z"/>
      <path class="st1" d="M92.44,8.78c2.06,0,3.32,1.06,3.32,2.9,0,1.41-.75,2.33-1.91,2.71v.06l2.13,2.8v.23h-1.29l-2.18-2.89h-2.36v2.89h-1.19v-8.7h3.48ZM92.4,9.87h-2.25v3.65h2.35c1.19,0,2.03-.58,2.03-1.81s-.84-1.84-2.13-1.84Z"/>
      <path class="st1" d="M103.41,13.61h-4.22v2.78h4.95v1.09h-6.13v-8.7h6.13v1.09h-4.95v2.68h4.22s0,1.06,0,1.06Z"/>
      <path class="st1" d="M113.63,17.48h-1.26l-.77-1.87h-4.42l-.77,1.87h-1.25l3.65-8.7h1.15s3.67,8.7,3.67,8.7ZM107.61,14.55h3.55l-1.77-4.31s-1.78,4.31-1.78,4.31Z"/>
      <path class="st1" d="M113.53,8.78h6.83v1.09h-2.83v7.61h-1.19v-7.61h-2.81s0-1.09,0-1.09Z"/>
      <path class="st1" d="M123.42,17.48h-1.19v-8.7h1.19v8.7Z"/>
      <path class="st1" d="M125.02,8.78h1.25l2.97,7.25,2.99-7.25h1.26l-3.67,8.7h-1.15l-3.65-8.7Z"/>
      <path class="st1" d="M140.49,13.61h-4.22v2.78h4.95v1.09h-6.13v-8.7h6.13v1.09h-4.95v2.68h4.22s0,1.06,0,1.06Z"/>
      <path class="st1" d="M149.83,17.48h-2.97v-8.7h2.97c2.67,0,4.45,1.71,4.45,4.35s-1.78,4.35-4.45,4.35ZM148.05,9.87v6.53h1.71c1.86,0,3.29-1.2,3.29-3.26s-1.44-3.26-3.29-3.26h-1.71Z"/>
      <path class="st1" d="M157.56,17.48h-1.19v-8.7h1.19v8.7Z"/>
      <path class="st1" d="M166.64,13.51h-2.89v-1.06h4.13v.73c0,2.61-1.46,4.31-3.93,4.31-2.67,0-4.31-2.02-4.31-4.54s1.7-4.55,4.35-4.55c2.15,0,3.09,1.13,3.09,1.13l-.71.91s-.84-.91-2.38-.91c-1.91,0-3.12,1.52-3.12,3.42s1.16,3.41,3.07,3.41c1.62,0,2.68-1.13,2.68-2.78v-.06h.02Z"/>
      <path class="st1" d="M171.03,17.48h-1.19v-8.7h1.19v8.7Z"/>
      <path class="st1" d="M172.91,8.78h6.83v1.09h-2.83v7.61h-1.19v-7.61h-2.81s0-1.09,0-1.09Z"/>
      <path class="st1" d="M188.1,17.48h-1.26l-.77-1.87h-4.42l-.77,1.87h-1.25l3.65-8.7h1.15l3.67,8.7h0ZM182.09,14.55h3.55l-1.77-4.31s-1.78,4.31-1.78,4.31Z"/>
      <path class="st1" d="M189.7,17.48v-8.7h1.19v7.61h4.42v1.09h-5.61Z"/>
    </g>
  </g>
  <g>
    <path class="st0" d="M13.09,26.18c-3.5,0-6.78-1.36-9.26-3.83-2.47-2.47-3.83-5.76-3.83-9.26S1.36,6.31,3.83,3.83C6.31,1.36,9.59,0,13.09,0s6.78,1.36,9.26,3.83c2.47,2.47,3.83,5.76,3.83,9.26s-1.36,6.78-3.83,9.26c-2.47,2.47-5.76,3.83-9.26,3.83ZM13.09,3.06C7.56,3.06,3.06,7.56,3.06,13.09s4.5,10.03,10.03,10.03,10.03-4.5,10.03-10.03S18.62,3.06,13.09,3.06Z"/>
    <path class="st1" d="M13.09,1.53C6.97,1.53,1.99,6.27,1.57,12.28h-.01s0,.02,0,.02c-.02.26-.04.52-.04.78,0,6.39,5.18,11.56,11.56,11.56s11.56-5.18,11.56-11.56S19.47,1.53,13.09,1.53ZM3.12,12.52c1.36-1.12,3.01-2.01,4.58-2.34-.26,1.43-2.63,4.84-3.68,7.11-.59-1.28-.93-2.7-.93-4.2,0-.19.02-.38.03-.57ZM13.09,23.09c-3.29,0-6.21-1.6-8.03-4.06,1.93-1.56,4.93-6.75,8.7-8.41-.66,1.86-3.29,4.83-2.17,5.76,1.01.75,4.35-5.02,7.97-6.63l-3.4,5.94c-.54,1.17-.25,1.95.14,2.41.49.52,1.13.88,1.61.47.51-.5-.29-.89-.24-1.73v-.03c.35-2.24,4.81-6.73,3.1-8.24-1.34-1.1-4.44,1.9-6.27,4.16.62-1.63,1.39-3.12.34-3.64-1.58-.78-5.42,3.15-8.07,6.35.73-2.02,3.41-4.79,2.59-5.76-1.07-1.09-4.05.25-6.08,1.51.89-4.61,4.94-8.1,9.81-8.1,5.52,0,10,4.48,10,10s-4.48,10-10,10Z"/>
  </g>
</svg>